# Blender 4.0.2
# www.blender.org
mtllib cornell_box.mtl
o Cube
v -1.887075 -2.491975 -1.887075
v -0.626384 2.491975 -0.626384
v 1.887075 -2.491975 -1.887075
v 0.626384 2.491975 -0.626384
v -1.887075 -2.491975 1.887075
v -1.887075 2.491975 1.887075
v 1.887075 -2.491975 1.887075
v 1.887075 2.491975 1.887075
v -1.887075 2.491975 -1.887075
v 1.887075 2.491975 -1.887075
v -0.626384 2.491975 0.626384
v 0.626384 2.491975 0.626384
vn -0.0000 -0.0000 1.0000
vn -1.0000 -0.0000 -0.0000
vn 1.0000 -0.0000 -0.0000
vn -0.0000 1.0000 -0.0000
vn -0.0000 -1.0000 -0.0000
vt 0.375000 0.000000
vt 0.375000 0.250000
vt 0.625000 0.250000
vt 0.625000 0.000000
vt 0.375000 0.500000
vt 0.625000 0.500000
vt 0.375000 0.750000
vt 0.375000 1.000000
vt 0.625000 1.000000
vt 0.625000 0.750000
vt 0.125000 0.500000
vt 0.125000 0.750000
vt 0.708508 0.583508
vt 0.708508 0.666492
vt 0.791492 0.666492
vt 0.791492 0.583508
vt 0.875000 0.750000
vt 0.875000 0.500000
s 0
usemtl red
f 5/7/3 1/8/3 9/9/3 6/10/3
usemtl green
f 3/2/2 7/5/2 8/6/2 10/3/2
usemtl gray
f 1/1/1 3/2/1 10/3/1 9/4/1
f 3/11/4 1/12/4 5/7/4 7/5/4
f 4/16/5 2/15/5 9/17/5 10/18/5
f 12/13/5 4/16/5 10/18/5 8/6/5
f 11/14/5 12/13/5 8/6/5 6/10/5
f 2/15/5 11/14/5 6/10/5 9/17/5
usemtl light_source
f 12/13/5 11/14/5 2/15/5 4/16/5
